#!OML:ASF H:\Terrain\Patient Classification 1\Animal1\Tuesday\Animal1.ASF
:FULLY-SPECIFIED
:DEGREES
1127
root 7.84222 16.6689 -4.74824 16.192 10.2799 0.587518
lowerback 15.247 -1.08135 -1.46871
upperback 13.7991 -1.40799 -0.818363
thorax 6.25741 -0.734243 0.091129
lowerneck -6.0499 1.65521 -5.04941
upperneck -6.23365 2.77101 6.80557
head -1.1132 1.47512 3.09822
rclavicle 9.14409e-015 0
rhumerus 14.0414 23.0175 -83.2231
rradius 18.0917
rwrist -34.7221
rhand -26.3846 31.9384
rfingers 7.12502
rthumb 0.174275 1.95874
lclavicle 9.14409e-015 0
lhumerus 10.4079 -11.8966 83.1143
lradius 20.8489
lwrist -14.8031
lhand -6.11681 40.9762
lfingers 7.12502
lthumb 19.7201 69.9959
rfemur -34.1609 5.20819 21.667
rtibia 26.1498
rfoot -7.27174 -35.8694
rtoes 27.53
lfemur -32.0737 -10.4807 -10.4317
ltibia 14.3868
lfoot -4.47028 21.1962
ltoes 1.02642
1128
root 7.8464 16.6685 -4.71629 15.946 10.3667 0.753761
lowerback 15.1315 -1.08184 -1.8414
upperback 13.6466 -1.44122 -0.930768
thorax 6.15551 -0.773842 0.183611
lowerneck -5.48375 1.72663 -5.16285
upperneck -6.40634 2.86285 6.90466
head -1.27755 1.51201 3.14842
rclavicle -1.19271e-014 -6.36111e-015
rhumerus 13.7225 23.5689 -83.3851
rradius 17.9114
rwrist -34.85
rhand -26.535 32.4048
rfingers 7.12502
rthumb 0.0289792 2.42507
lclavicle -1.19271e-014 -6.36111e-015
lhumerus 9.89089 -11.4604 83.2658
lradius 20.7655
lwrist -15.6074
lhand -5.89088 40.6921
lfingers 7.12502
lthumb 19.9372 69.6893
rfemur -33.7624 5.11549 21.5478
rtibia 26.2172
rfoot -7.2678 -35.9903
rtoes 27.0925
lfemur -31.9325 -9.56036 -11.2089
ltibia 14.9961
lfoot -4.41689 20.8811
ltoes 1.7326
1129
root 7.85086 16.67 -4.68351 15.7834 10.3828 0.87447
lowerback 14.8418 -1.08487 -2.2438
upperback 13.5904 -1.47403 -1.03157
thorax 6.25783 -0.817669 0.299153
lowerneck -5.54183 1.778 -5.54189
upperneck -6.2664 2.96082 7.28591
head -1.24382 1.56883 3.35409
rclavicle 8.74653e-015 -7.95139e-015
rhumerus 13.6653 24.2579 -83.414
rradius 17.861
rwrist -35.0481
rhand -25.6149 31.1847
rfingers 7.12502
rthumb 0.917733 1.20693
lclavicle 8.74653e-015 -7.95139e-015
lhumerus 9.61507 -11.5082 83.1143
lradius 20.837
lwrist -15.6913
lhand -6.05767 40.8388
lfingers 7.12502
lthumb 19.7769 69.8526
rfemur -33.4583 5.20325 21.3952
rtibia 26.2167
rfoot -7.49942 -36.1504
rtoes 27.5759
lfemur -31.942 -8.59325 -11.9075
ltibia 15.7083
lfoot -4.52823 20.8147
ltoes 2.80262
1130
root 7.85562 16.6711 -4.65076 15.5553 10.4769 0.730664
lowerback 14.6215 -1.13133 -2.39683
upperback 13.443 -1.54617 -1.07511
thorax 6.21449 -0.863467 0.342828
lowerneck -5.20356 1.8663 -5.71014
upperneck -6.32929 3.08168 7.42907
head -1.33885 1.62537 3.43299
rclavicle -4.21423e-014 5.56597e-015
rhumerus 13.3119 25.1967 -83.501
rradius 18.16
rwrist -35.2999
rhand -26.2671 31.362
rfingers 7.12502
rthumb 0.28781 1.38241
lclavicle -4.21423e-014 5.56597e-015
lhumerus 9.1514 -11.7119 82.8667
lradius 20.8551
lwrist -15.6402
lhand -6.23745 40.8886
lfingers 7.12502
lthumb 19.6041 69.9202
rfemur -33.0452 5.4848 21.4747
rtibia 26.0842
rfoot -7.86517 -36.4787
rtoes 28.199
lfemur -32.0589 -7.76862 -12.2453
ltibia 16.6733
lfoot -4.7589 20.9291
ltoes 3.84139
1131
root 7.85752 16.673 -4.61992 15.3441 10.5197 0.422538
lowerback 14.4767 -1.19779 -2.48687
upperback 13.3217 -1.6395 -1.14565
thorax 6.15831 -0.913617 0.325601
lowerneck -5.11683 2.02477 -5.25562
upperneck -6.50638 3.26672 7.05363
head -1.40707 1.70872 3.21417
rclavicle -3.29983e-014 -5.1684e-015
rhumerus 13.0754 26.3575 -83.6084
rradius 18.636
rwrist -35.7626
rhand -27.3143 32.5559
rfingers 7.12502
rthumb -0.723636 2.57734
lclavicle -3.29983e-014 -5.1684e-015
lhumerus 8.81313 -12.0672 82.3718
lradius 20.7549
lwrist -15.1253
lhand -5.88592 40.5426
lfingers 7.12502
lthumb 19.942 69.5393
rfemur -32.6297 5.97209 21.7015
rtibia 25.8657
rfoot -8.04268 -36.9311
rtoes 28.508
lfemur -32.2481 -6.99188 -12.2885
ltibia 17.7245
lfoot -5.78989 20.9949
ltoes 8.85503
1132
root 7.86576 16.6761 -4.58993 15.1214 10.5122 0.0311075
lowerback 14.3293 -1.30453 -2.55113
upperback 13.0794 -1.78895 -1.19402
thorax 5.9686 -0.990048 0.324961
lowerneck -4.82997 2.25304 -4.8715
upperneck -6.49451 3.53348 6.7279
head -1.45502 1.8312 3.02502
rclavicle 2.38542e-014 1.47101e-014
rhumerus 12.6314 27.4959 -83.976
rradius 18.8767
rwrist -35.9801
rhand -27.1471 32.5339
rfingers 7.12502
rthumb -0.562114 2.55488
lclavicle 2.38542e-014 1.47101e-014
lhumerus 8.19635 -12.2543 81.9332
lradius 20.6278
lwrist -14.8023
lhand -5.45793 40.3072
lfingers 7.12502
lthumb 20.3534 69.2606
rfemur -32.2199 6.12378 22.1343
rtibia 25.6797
rfoot -7.63754 -37.05
rtoes 27.5539
lfemur -32.3464 -6.05007 -12.3084
ltibia 18.6212
lfoot -6.98725 21.118
ltoes 14.0586
